<?xml version="1.0" encoding="utf-8"?>
<!-- Generator: Adobe Illustrator 27.5.0, SVG Export Plug-In . SVG Version: 6.00 Build 0)  -->
<svg version="1.1" xmlns="http://www.w3.org/2000/svg" xmlns:xlink="http://www.w3.org/1999/xlink" x="0px" y="0px"
	 viewBox="0 0 2200 2200" style="enable-background:new 0 0 2200 2200;" xml:space="preserve">
<g id="Background">
	<rect style="fill:#FFFFFF;" width="2200" height="2200"/>
</g>
<g id="Objects">
	<g>
		<path style="fill:#FFFFFF;" d="M1766.393,291.102v1637.296c0,36.441-29.651,66.092-66.092,66.092H481.029
			c-36.441,0-66.092-29.651-66.092-66.092V291.102c0-36.451,29.651-66.102,66.092-66.102h1219.273
			C1736.742,225,1766.393,254.651,1766.393,291.102z"/>
		<path d="M1687.736,232.907c41.454,0,75.06,33.605,75.06,75.06v1603.561c0,41.455-33.606,75.06-75.06,75.06H493.594
			c-41.455,0-75.061-33.605-75.061-75.06V307.967c0-41.455,33.606-75.06,75.061-75.06H1687.736 M1687.736,219.617H493.594
			c-48.716,0-88.35,39.633-88.35,88.35v1603.561c0,48.716,39.634,88.35,88.35,88.35h1194.141c48.716,0,88.35-39.634,88.35-88.35
			V307.967C1776.086,259.25,1736.452,219.617,1687.736,219.617L1687.736,219.617z"/>
		<path d="M1687.735,1976.263H493.595c-35.695,0-64.736-29.039-64.736-64.734V307.967c0-35.695,29.041-64.736,64.736-64.736
			h1194.141c35.695,0,64.735,29.041,64.735,64.736v1603.562C1752.471,1947.224,1723.431,1976.263,1687.735,1976.263z
			 M493.595,249.876c-32.031,0-58.091,26.06-58.091,58.091v1603.562c0,32.03,26.06,58.09,58.091,58.09h1194.141
			c32.031,0,58.091-26.06,58.091-58.09V307.967c0-32.031-26.06-58.091-58.091-58.091H493.595z"/>
		<path d="M1680.912,1931.909H500.418c-13.119,0-23.793-10.674-23.793-23.793V311.378c0-13.12,10.674-23.793,23.793-23.793h1180.494
			c13.119,0,23.793,10.674,23.793,23.793v1596.738C1704.705,1921.235,1694.031,1931.909,1680.912,1931.909z M500.418,294.23
			c-9.456,0-17.148,7.693-17.148,17.148v1596.738c0,9.456,7.692,17.148,17.148,17.148h1180.494c9.456,0,17.148-7.692,17.148-17.148
			V311.378c0-9.456-7.692-17.148-17.148-17.148H500.418z"/>
		<path d="M1090.665,280.583c-6.591,0-11.952-5.362-11.952-11.952c0-6.591,5.361-11.953,11.952-11.953s11.952,5.362,11.952,11.953
			C1102.617,275.221,1097.256,280.583,1090.665,280.583z M1090.665,263.322c-2.927,0-5.308,2.381-5.308,5.308
			s2.381,5.308,5.308,5.308s5.308-2.381,5.308-5.308S1093.592,263.322,1090.665,263.322z"/>
		<g>
			<path d="M1578.557,210h68.734c3.769,0,6.824,3.055,6.824,6.824v4.513h-82.381v-4.513C1571.733,213.055,1574.788,210,1578.557,210
				z"/>
		</g>
		<g>
			<path d="M1784.878,366.027v49.997c0,3.769-3.055,6.824-6.824,6.824h-4.513v-63.644h4.513
				C1781.823,359.203,1784.878,362.258,1784.878,366.027z"/>
		</g>
		<g>
			<path d="M1784.878,440.094v49.997c0,3.769-3.055,6.824-6.824,6.824h-4.513v-63.644h4.513
				C1781.823,433.271,1784.878,436.326,1784.878,440.094z"/>
		</g>
		<path d="M1272.577,1902.146h-357c-1.835,0-3.322-1.487-3.322-3.322s1.487-3.322,3.322-3.322h357c1.835,0,3.322,1.487,3.322,3.322
			S1274.412,1902.146,1272.577,1902.146z"/>
	</g>
</g>
</svg>
